<svg width="9" height="14" viewBox="0 0 9 13" fill="none" xmlns="http://www.w3.org/2000/svg">
    <path d="M5.175 7.70035C7.28411 7.70035 9 5.97316 9 3.85017C9 1.72719 7.28411 0 5.175 0C5.16677 0 5.15858 0.000135888 5.15043 0.000452962H2.0259C2.02558 0.000452962 2.02532 0.000407665 2.02505 0.000407665C1.65227 0.000407665 1.35005 0.304617 1.35005 0.67985V0.679895V7.02091V9.05923H0.675C0.30222 9.05923 0 9.36344 0 9.73868C0 10.1139 0.30222 10.4181 0.675 10.4181H1.35V12.3206C1.35 12.6958 1.65222 13 2.025 13C2.39778 13 2.7 12.6958 2.7 12.3206V10.4181H5.175C5.54778 10.4181 5.85 10.1139 5.85 9.73868C5.85 9.36344 5.54778 9.05923 5.175 9.05923H2.7V7.70035H5.175ZM5.175 1.35934C5.18229 1.35934 5.18958 1.3592 5.19678 1.35898C6.55155 1.37075 7.65 2.48377 7.65 3.85017C7.65 5.22387 6.53972 6.34146 5.175 6.34146H2.7V1.35934H5.175Z" fill="#446B80"/>
</svg>
