<svg width="11" height="14" viewBox="0 0 11 17" fill="none" xmlns="http://www.w3.org/2000/svg">
    <path d="M6.325 10.0697C8.90279 10.0697 11 7.81106 11 5.03484C11 2.25863 8.90279 0 6.325 0C6.31493 0 6.30492 0.0001777 6.29497 0.000592334H2.4761C2.47571 0.000592334 2.47538 0.000533101 2.47505 0.000533101C2.01943 0.000533101 1.65005 0.398345 1.65005 0.889035V0.889094V9.18118V11.8467H0.825C0.36938 11.8467 0 12.2445 0 12.7352C0 13.2259 0.36938 13.6237 0.825 13.6237H1.65V16.1115C1.65 16.6022 2.01938 17 2.475 17C2.93062 17 3.3 16.6022 3.3 16.1115V13.6237H6.325C6.78062 13.6237 7.15 13.2259 7.15 12.7352C7.15 12.2445 6.78062 11.8467 6.325 11.8467H3.3V10.0697H6.325ZM6.325 1.7776C6.33391 1.7776 6.34282 1.77742 6.35162 1.77712C8.00745 1.79252 9.35 3.24801 9.35 5.03484C9.35 6.83122 7.99298 8.29268 6.325 8.29268H3.3V1.7776H6.325Z" fill="#7FC9F0"/>
</svg>
